<svg width="800" height="800" viewBox="0 0 800 800" fill="none" xmlns="http://www.w3.org/2000/svg">
<path d="M397.867 0.53345C364.418 0.629056 331.11 4.86118 298.7 13.1334C142.7 51.9001 18.9001 193.233 3.0334 353.467C-16.6333 505.1 59.9667 663 191.167 741.3C319.867 821.9 494.267 818.633 620.3 733.867C733.533 660.333 804.033 526.267 799.833 391.033C797.9 257.167 722.833 127.133 607.867 58.3668C545.133 19.6668 471.433 0.23345 397.867 0.53345ZM395.767 57.0668C560.6 56.8334 722.067 184.2 738.5 354.567C770 543.233 613.4 735 422.233 740.567C240.433 758.7 64.7334 604.567 59.5667 422C46.0001 274.2 143.433 127.5 282.833 78.6668C318.762 64.3544 357.093 57.0344 395.767 57.1001V57.0668ZM565.467 164.567C475.9 234.067 390.133 308.167 302.5 379.8C342.6 380.367 382.9 380.333 423.2 380.133C470.2 307.967 518.5 236.767 565.467 164.567ZM376.633 419.7C329.633 491.9 281.3 563.333 234.3 635.5C324.067 566.167 409.467 491.5 497.7 420.3C457.346 419.813 416.99 419.613 376.633 419.7Z" fill="white"/>
</svg>
